
<svg width="18" height="18" viewBox="0 0 18 18" fill="none" xmlns="http://www.w3.org/2000/svg">
<path d="M8.19971 0.462168C8.69493 0.176253 9.30507 0.176253 9.80029 0.462168L15.9939 4.03808C16.4892 4.32399 16.7942 4.85238 16.7942 5.42421V12.576C16.7942 13.1479 16.4892 13.6763 15.9939 13.9622L9.80029 17.5381C9.30507 17.824 8.69493 17.824 8.19971 17.5381L2.00606 13.9622C1.51084 13.6763 1.20577 13.1479 1.20577 12.576V5.42421C1.20577 4.85238 1.51084 4.32399 2.00606 4.03808L8.19971 0.462168Z" fill="url(#paint0_linear_10246_59577)"/>
<g filter="url(#filter0_d_10246_59577)">
<path d="M5.74359 11.022C5.74359 10.942 5.78359 10.894 5.86359 10.878L7.43559 10.626C7.51559 10.61 7.55559 10.642 7.55559 10.722C7.57159 10.93 7.63959 11.098 7.75959 11.226C7.87959 11.354 8.05959 11.418 8.29959 11.418C8.59559 11.418 8.83559 11.306 9.01959 11.082C9.21159 10.85 9.30759 10.57 9.30759 10.242C9.30759 10.002 9.23959 9.81796 9.10359 9.68996C8.96759 9.55396 8.77559 9.48596 8.52759 9.48596H8.20359C8.12359 9.48596 8.09159 9.44596 8.10759 9.36596L8.33559 8.02196C8.35959 7.94196 8.40759 7.90196 8.47959 7.90196H8.77959C9.06759 7.90196 9.30359 7.79796 9.48759 7.58996C9.67159 7.38196 9.76359 7.12196 9.76359 6.80996C9.76359 6.61796 9.71159 6.46596 9.60759 6.35396C9.50359 6.24196 9.35559 6.18596 9.16359 6.18596C8.95559 6.18596 8.77559 6.24996 8.62359 6.37796C8.47959 6.49796 8.36359 6.66196 8.27559 6.86996C8.24359 6.94196 8.19559 6.97396 8.13159 6.96596L6.63159 6.72596C6.56759 6.70996 6.54759 6.66196 6.57159 6.58196C6.66759 6.29396 6.80759 6.02996 6.99159 5.78996C7.17559 5.54196 7.39159 5.32996 7.63959 5.15396C7.89559 4.96996 8.18359 4.82996 8.50359 4.73396C8.82359 4.62996 9.17159 4.57796 9.54759 4.57796C9.90759 4.57796 10.2236 4.62596 10.4956 4.72196C10.7676 4.80996 10.9956 4.93396 11.1796 5.09396C11.3636 5.25396 11.4996 5.44596 11.5876 5.66996C11.6836 5.88596 11.7316 6.12596 11.7316 6.38996C11.7316 6.84596 11.6236 7.25796 11.4076 7.62596C11.1996 7.98596 10.8996 8.28196 10.5076 8.51396V8.53796C10.6996 8.64996 10.8676 8.82596 11.0116 9.06596C11.1636 9.29796 11.2396 9.60596 11.2396 9.98996C11.2396 10.438 11.1556 10.85 10.9876 11.226C10.8276 11.594 10.6076 11.914 10.3276 12.186C10.0476 12.45 9.71559 12.658 9.33159 12.81C8.94759 12.954 8.53559 13.026 8.09559 13.026C7.72759 13.026 7.39559 12.978 7.09959 12.882C6.81159 12.786 6.56359 12.654 6.35559 12.486C6.15559 12.31 5.99959 12.098 5.88759 11.85C5.78359 11.602 5.73559 11.326 5.74359 11.022Z" fill="white"/>
</g>
<defs>
<filter id="filter0_d_10246_59577" x="5.73169" y="4.578" width="6" height="9.24829" filterUnits="userSpaceOnUse" color-interpolation-filters="sRGB">
<feFlood flood-opacity="0" result="BackgroundImageFix"/>
<feColorMatrix in="SourceAlpha" type="matrix" values="0 0 0 0 0 0 0 0 0 0 0 0 0 0 0 0 0 0 127 0" result="hardAlpha"/>
<feOffset dy="0.800287"/>
<feComposite in2="hardAlpha" operator="out"/>
<feColorMatrix type="matrix" values="0 0 0 0 0 0 0 0 0 0 0 0 0 0 0 0 0 0 0.25 0"/>
<feBlend mode="normal" in2="BackgroundImageFix" result="effect1_dropShadow_10246_59577"/>
<feBlend mode="normal" in="SourceGraphic" in2="effect1_dropShadow_10246_59577" result="shape"/>
</filter>
<linearGradient id="paint0_linear_10246_59577" x1="12.15" y1="16.2001" x2="6.75" y2="1.35012" gradientUnits="userSpaceOnUse">
<stop offset="0.166528" stop-color="#D67F66"/>
<stop offset="1" stop-color="#FEC9B9"/>
</linearGradient>
</defs>
</svg>
