
<svg width="18" height="19" viewBox="0 0 18 19" fill="none" xmlns="http://www.w3.org/2000/svg">
<path d="M8.19971 0.962046C8.69493 0.676131 9.30507 0.676131 9.80029 0.962046L15.9939 4.53795C16.4892 4.82387 16.7942 5.35226 16.7942 5.92409V13.0759C16.7942 13.6477 16.4892 14.1761 15.9939 14.462L9.80029 18.038C9.30507 18.3239 8.69493 18.3239 8.19971 18.038L2.00606 14.462C1.51084 14.1761 1.20577 13.6477 1.20577 13.0759V5.92409C1.20577 5.35226 1.51084 4.82387 2.00606 4.53795L8.19971 0.962046Z" fill="url(#paint0_linear_10246_59563)"/>
<g filter="url(#filter0_d_10246_59563)">
<path d="M5.69573 12.084C5.70373 12.012 5.73973 11.952 5.80373 11.904L9.09173 8.652C9.33173 8.412 9.49973 8.2 9.59573 8.016C9.69973 7.824 9.75173 7.624 9.75173 7.416C9.75173 7.224 9.69973 7.076 9.59573 6.972C9.49173 6.86 9.34373 6.804 9.15173 6.804C8.91973 6.804 8.71973 6.88 8.55173 7.032C8.38373 7.176 8.25573 7.412 8.16773 7.74C8.15173 7.828 8.10373 7.864 8.02373 7.848L6.53573 7.608C6.47173 7.6 6.44773 7.556 6.46373 7.476C6.54373 7.156 6.66773 6.856 6.83573 6.576C7.00373 6.296 7.21573 6.056 7.47173 5.856C7.72773 5.648 8.02373 5.488 8.35973 5.376C8.70373 5.256 9.08373 5.196 9.49973 5.196C9.84373 5.196 10.1517 5.244 10.4237 5.34C10.6957 5.436 10.9277 5.572 11.1197 5.748C11.3117 5.916 11.4557 6.12 11.5517 6.36C11.6557 6.592 11.7077 6.844 11.7077 7.116C11.7077 7.612 11.5997 8.056 11.3837 8.448C11.1757 8.84 10.8677 9.232 10.4597 9.624L8.16773 11.844V11.868H10.7837C10.8717 11.868 10.9077 11.908 10.8917 11.988L10.6397 13.38C10.6237 13.46 10.5797 13.5 10.5077 13.5H5.55173C5.47173 13.5 5.43973 13.46 5.45573 13.38L5.69573 12.084Z" fill="white"/>
</g>
<defs>
<filter id="filter0_d_10246_59563" x="5.43164" y="5.19604" width="6.27612" height="9.10424" filterUnits="userSpaceOnUse" color-interpolation-filters="sRGB">
<feFlood flood-opacity="0" result="BackgroundImageFix"/>
<feColorMatrix in="SourceAlpha" type="matrix" values="0 0 0 0 0 0 0 0 0 0 0 0 0 0 0 0 0 0 127 0" result="hardAlpha"/>
<feOffset dy="0.800287"/>
<feComposite in2="hardAlpha" operator="out"/>
<feColorMatrix type="matrix" values="0 0 0 0 0 0 0 0 0 0 0 0 0 0 0 0 0 0 0.25 0"/>
<feBlend mode="normal" in2="BackgroundImageFix" result="effect1_dropShadow_10246_59563"/>
<feBlend mode="normal" in="SourceGraphic" in2="effect1_dropShadow_10246_59563" result="shape"/>
</filter>
<linearGradient id="paint0_linear_10246_59563" x1="11.25" y1="16.25" x2="8.1" y2="0.0499992" gradientUnits="userSpaceOnUse">
<stop stop-color="#B9B6C6"/>
<stop offset="1" stop-color="#E1DFEA"/>
</linearGradient>
</defs>
</svg>
